HIERARCHY
ROOT Hips
{
  OFFSET 5.80788e-005 67.184 3.4734
  CHANNELS 6 Xposition Yposition Zposition Zrotation Xrotation Yrotation
  JOINT Chest
  {
    OFFSET 0 8.7983 -4.7612
    CHANNELS 6 Xposition Yposition Zposition Zrotation Xrotation Yrotation
    JOINT Chest2
    {
      OFFSET 0 8.0291 0.4195
      CHANNELS 6 Xposition Yposition Zposition Zrotation Xrotation Yrotation
      JOINT Chest3
      {
        OFFSET 0 9.9351 -2.2114
        CHANNELS 6 Xposition Yposition Zposition Zrotation Xrotation Yrotation
        JOINT Neck
        {
          OFFSET 0 22.3885 -0.4656
          CHANNELS 6 Xposition Yposition Zposition Zrotation Xrotation Yrotation
          JOINT Head
          {
            OFFSET -0.0001 12.643 3.4389
            CHANNELS 6 Xposition Yposition Zposition Zrotation Xrotation Yrotation
            End Site
            {
              OFFSET 0.0001 17.6655 0.5274
            }
          }
        }
        JOINT LeftCollar
        {
          OFFSET 2.2603 21.606 7.4023
          CHANNELS 6 Xposition Yposition Zposition Zrotation Xrotation Yrotation
          JOINT LeftShoulder
          {
            OFFSET 13.5163 -1.1332 -5.0146
            CHANNELS 6 Xposition Yposition Zposition Zrotation Xrotation Yrotation
            JOINT LeftElbow
            {
              OFFSET -0.0995 -28.05 -0.2431
              CHANNELS 6 Xposition Yposition Zposition Zrotation Xrotation Yrotation
              JOINT LeftWrist
              {
                OFFSET 0.0679 -23.3996 -0.1402
                CHANNELS 6 Xposition Yposition Zposition Zrotation Xrotation Yrotation
                JOINT LeftFinger1
                {
                  OFFSET 0.7932 -9.069 2.5189
                  CHANNELS 6 Xposition Yposition Zposition Zrotation Xrotation Yrotation
                  JOINT LeftFinger11
                  {
                    OFFSET -0.8272 -3.3923 0.5977
                    CHANNELS 6 Xposition Yposition Zposition Zrotation Xrotation Yrotation
                    JOINT LeftFinger12
                    {
                      OFFSET -0.5649 -2.3158 0.4082
                      CHANNELS 6 Xposition Yposition Zposition Zrotation Xrotation Yrotation
                      End Site
                      {
                        OFFSET -0.4919 -1.6479 0.2673
                      }
                    }
                  }
                }
                JOINT LeftFinger2
                {
                  OFFSET 0.9159 -9.2044 0.2193
                  CHANNELS 6 Xposition Yposition Zposition Zrotation Xrotation Yrotation
                  JOINT LeftFinger21
                  {
                    OFFSET 0.0117 -4.1944 -0.0248
                    CHANNELS 6 Xposition Yposition Zposition Zrotation Xrotation Yrotation
                    JOINT LeftFinger22
                    {
                      OFFSET 0.0071 -2.3249 -0.0142
                      CHANNELS 6 Xposition Yposition Zposition Zrotation Xrotation Yrotation
                      End Site
                      {
                        OFFSET -0.1475 -2.0882 0.0028
                      }
                    }
                  }
                }
                JOINT LeftFinger3
                {
                  OFFSET 0.6113 -8.7231 -2.0637
                  CHANNELS 6 Xposition Yposition Zposition Zrotation Xrotation Yrotation
                  JOINT LeftFinger31
                  {
                    OFFSET -0.1927 -3.8059 -0.2383
                    CHANNELS 6 Xposition Yposition Zposition Zrotation Xrotation Yrotation
                    JOINT LeftFinger32
                    {
                      OFFSET -0.1091 -2.1688 -0.1362
                      CHANNELS 6 Xposition Yposition Zposition Zrotation Xrotation Yrotation
                      End Site
                      {
                        OFFSET -0.2358 -1.9176 -0.0906
                      }
                    }
                  }
                }
                JOINT LeftFinger4
                {
                  OFFSET -0.6151 -8.0947 -3.5641
                  CHANNELS 6 Xposition Yposition Zposition Zrotation Xrotation Yrotation
                  JOINT LeftFinger41
                  {
                    OFFSET -0.4882 -2.341 -0.6462
                    CHANNELS 6 Xposition Yposition Zposition Zrotation Xrotation Yrotation
                    JOINT LeftFinger42
                    {
                      OFFSET -0.3575 -1.7167 -0.4742
                      CHANNELS 6 Xposition Yposition Zposition Zrotation Xrotation Yrotation
                      End Site
                      {
                        OFFSET -0.4187 -1.5237 -0.3496
                      }
                    }
                  }
                }
                JOINT LeftFinger0
                {
                  OFFSET -1.42 -1.8761 1.4223
                  CHANNELS 6 Xposition Yposition Zposition Zrotation Xrotation Yrotation
                  JOINT LeftFinger01
                  {
                    OFFSET -1.1471 -3.4929 2.6334
                    CHANNELS 6 Xposition Yposition Zposition Zrotation Xrotation Yrotation
                    JOINT LeftFinger02
                    {
                      OFFSET -0.823 -2.3 1.6571
                      CHANNELS 6 Xposition Yposition Zposition Zrotation Xrotation Yrotation
                      End Site
                      {
                        OFFSET -0.5822 -1.6914 1.1582
                      }
                    }
                  }
                }
              }
            }
          }
        }
        JOINT RightCollar
        {
          OFFSET -2.2603 21.606 7.4023
          CHANNELS 6 Xposition Yposition Zposition Zrotation Xrotation Yrotation
          JOINT RightShoulder
          {
            OFFSET -13.5187 -1.1334 -5.0155
            CHANNELS 6 Xposition Yposition Zposition Zrotation Xrotation Yrotation
            JOINT RightElbow
            {
              OFFSET 0.0994 -28.0499 -0.2431
              CHANNELS 6 Xposition Yposition Zposition Zrotation Xrotation Yrotation
              JOINT RightWrist
              {
                OFFSET -0.0679 -23.3996 -0.1402
                CHANNELS 6 Xposition Yposition Zposition Zrotation Xrotation Yrotation
                JOINT RightFinger1
                {
                  OFFSET -0.7932 -9.0691 2.5189
                  CHANNELS 6 Xposition Yposition Zposition Zrotation Xrotation Yrotation
                  JOINT RightFinger11
                  {
                    OFFSET 0.8272 -3.3923 0.5977
                    CHANNELS 6 Xposition Yposition Zposition Zrotation Xrotation Yrotation
                    JOINT RightFinger12
                    {
                      OFFSET 0.565 -2.3158 0.4082
                      CHANNELS 6 Xposition Yposition Zposition Zrotation Xrotation Yrotation
                      End Site
                      {
                        OFFSET 0.4919 -1.6479 0.2673
                      }
                    }
                  }
                }
                JOINT RightFinger2
                {
                  OFFSET -0.916 -9.2044 0.2193
                  CHANNELS 6 Xposition Yposition Zposition Zrotation Xrotation Yrotation
                  JOINT RightFinger21
                  {
                    OFFSET -0.0117 -4.1944 -0.0248
                    CHANNELS 6 Xposition Yposition Zposition Zrotation Xrotation Yrotation
                    JOINT RightFinger22
                    {
                      OFFSET -0.0071 -2.3249 -0.0142
                      CHANNELS 6 Xposition Yposition Zposition Zrotation Xrotation Yrotation
                      End Site
                      {
                        OFFSET 0.1475 -2.0882 0.0028
                      }
                    }
                  }
                }
                JOINT RightFinger3
                {
                  OFFSET -0.6113 -8.7231 -2.0637
                  CHANNELS 6 Xposition Yposition Zposition Zrotation Xrotation Yrotation
                  JOINT RightFinger31
                  {
                    OFFSET 0.1927 -3.8059 -0.2383
                    CHANNELS 6 Xposition Yposition Zposition Zrotation Xrotation Yrotation
                    JOINT RightFinger32
                    {
                      OFFSET 0.1091 -2.1688 -0.1362
                      CHANNELS 6 Xposition Yposition Zposition Zrotation Xrotation Yrotation
                      End Site
                      {
                        OFFSET 0.2358 -1.9176 -0.0906
                      }
                    }
                  }
                }
                JOINT RightFinger4
                {
                  OFFSET 0.6151 -8.0947 -3.564
                  CHANNELS 6 Xposition Yposition Zposition Zrotation Xrotation Yrotation
                  JOINT RightFinger41
                  {
                    OFFSET 0.4882 -2.341 -0.6462
                    CHANNELS 6 Xposition Yposition Zposition Zrotation Xrotation Yrotation
                    JOINT RightFinger42
                    {
                      OFFSET 0.3574 -1.7166 -0.4742
                      CHANNELS 6 Xposition Yposition Zposition Zrotation Xrotation Yrotation
                      End Site
                      {
                        OFFSET 0.4187 -1.5237 -0.3496
                      }
                    }
                  }
                }
                JOINT RightFinger0
                {
                  OFFSET 1.4199 -1.8761 1.4221
                  CHANNELS 6 Xposition Yposition Zposition Zrotation Xrotation Yrotation
                  JOINT RightFinger01
                  {
                    OFFSET 1.1472 -3.4929 2.6336
                    CHANNELS 6 Xposition Yposition Zposition Zrotation Xrotation Yrotation
                    JOINT RightFinger02
                    {
                      OFFSET 0.8229 -2.3 1.6571
                      CHANNELS 6 Xposition Yposition Zposition Zrotation Xrotation Yrotation
                      End Site
                      {
                        OFFSET 0.5822 -1.6914 1.1582
                      }
                    }
                  }
                }
              }
            }
          }
        }
      }
    }
  }
  JOINT RightHip
  {
    OFFSET -9.412 3.9771 -0.7758
    CHANNELS 6 Xposition Yposition Zposition Zrotation Xrotation Yrotation
    JOINT RightKnee
    {
      OFFSET -0.7531 -40.938 0
      CHANNELS 6 Xposition Yposition Zposition Zrotation Xrotation Yrotation
      JOINT RightAnkle
      {
        OFFSET 0 -40.1986 0
        CHANNELS 6 Xposition Yposition Zposition Zrotation Xrotation Yrotation
        JOINT RightToe
        {
          OFFSET 0 -4.4182 9.239
          CHANNELS 6 Xposition Yposition Zposition Zrotation Xrotation Yrotation
          End Site
          {
            OFFSET 0 0 6.1981
          }
        }
      }
    }
  }
  JOINT LeftHip
  {
    OFFSET 9.4119 3.9773 -0.7758
    CHANNELS 6 Xposition Yposition Zposition Zrotation Xrotation Yrotation
    JOINT LeftKnee
    {
      OFFSET 0.7532 -40.9383 0
      CHANNELS 6 Xposition Yposition Zposition Zrotation Xrotation Yrotation
      JOINT LeftAnkle
      {
        OFFSET 0 -40.1986 0
        CHANNELS 6 Xposition Yposition Zposition Zrotation Xrotation Yrotation
        JOINT LeftToe
        {
          OFFSET 0 -4.4182 9.239
          CHANNELS 6 Xposition Yposition Zposition Zrotation Xrotation Yrotation
          End Site
          {
            OFFSET 0 0 6.1981
          }
        }
      }
    }
  }
}
MOTION
Frames:	4
Frame Time:	0.0333333
39.8404 5.7645 9.04616 180 -76.7709 -180 0 8.7983 -4.7612 -0.0682562 3.36444 -0.150394 -7.10543e-015 8.0291 0.4195 -0.12798 6.72903 -0.297536 0 9.9351 -2.2114 -0.12798 6.72903 -0.297536 0 22.3885 -0.4656 5.96206 23.4806 6.60913 -0.0001 12.643 3.4389 2.0647 -4.83729 0.00286003 2.2603 21.606 7.4023 -11.2112 7.12707 -4.44728 13.5163 -1.1332 -5.0146 41.3412 -15.7837 31.3082 -0.0995 -28.05 -0.2431 -50.2807 -27.0428 -54.5414 0.0679 -23.3996 -0.1402 0.569663 14.1817 -3.57784 0.7932 -9.069 2.5189 4.72718e-007 4.77731e-008 -3.87622e-006 -0.8272 -3.3923 0.5977 -1.59028e-015 0 1.27222e-014 -0.5649 -2.3158 0.4082 4.77083e-015 6.36111e-015 1.27222e-014 0.9159 -9.2044 0.2193 4.72718e-007 4.77731e-008 -3.87622e-006 0.0117 -4.1944 -0.0248 -0.0127949 0.00232391 8.68813e-005 0.0071 -2.3249 -0.0142 6.36111e-015 1.59028e-014 -7.95139e-015 0.6113 -8.7231 -2.0637 4.72718e-007 4.77731e-008 -3.87622e-006 -0.1927 -3.8059 -0.2383 -0.0160339 0.0029883 0.000860454 -0.1091 -2.1688 -0.1362 -7.95139e-015 -3.18055e-015 -1.59028e-015 -0.6151 -8.0947 -3.5641 4.72718e-007 4.77731e-008 -3.87622e-006 -0.4882 -2.341 -0.6462 -0.0125693 0.00310915 0.00283065 -0.3575 -1.7167 -0.4742 3.18055e-015 1.59028e-014 -1.59028e-015 -1.42 -1.8761 1.4223 4.72718e-007 4.77731e-008 -3.87622e-006 -1.1471 -3.4929 2.6334 -1.59028e-015 0 1.27222e-014 -0.823 -2.3 1.6571 4.77083e-015 6.36111e-015 1.27222e-014 -2.2603 21.606 7.4023 10.7967 7.11281 -0.357365 -13.5187 -1.1334 -5.0155 -39.611 -17.9341 -27.1746 0.0994 -28.0499 -0.2431 49.419 -27.5458 54.7802 -0.0679 -23.3996 -0.1402 -0.15437 13.995 4.06123 -0.7932 -9.0691 2.5189 3.18055e-015 0 1.59028e-015 0.8272 -3.3923 0.5977 -7.06225e-031 6.36111e-015 6.36111e-015 0.565 -2.3158 0.4082 -3.1091e-006 -1.01496e-005 2.89445e-006 -0.916 -9.2044 0.2193 3.18055e-015 0 1.59028e-015 -0.0117 -4.1944 -0.0248 0.0129289 0.00229539 -8.13367e-005 -0.0071 -2.3249 -0.0142 -4.43724e-006 7.07569e-006 -8.59693e-006 -0.6113 -8.7231 -2.0637 3.18055e-015 0 1.59028e-015 0.1927 -3.8059 -0.2383 0.0163185 0.00303086 -0.000877001 0.1091 -2.1688 -0.1362 -6.23082e-007 -1.32246e-005 1.02472e-005 0.6151 -8.0947 -3.564 3.18055e-015 0 1.59028e-015 0.4882 -2.341 -0.6462 0.0145811 0.00366689 -0.00325358 0.3574 -1.7166 -0.4742 1.77514e-006 8.33365e-006 -1.99789e-006 1.4199 -1.8761 1.4221 3.18055e-015 0 1.59028e-015 1.1472 -3.4929 2.6336 -7.06225e-031 6.36111e-015 6.36111e-015 0.8229 -2.3 1.6571 -3.1091e-006 -1.01496e-005 2.89445e-006 -9.412 3.9771 -0.7758 -1.0441 -10.2478 -30.5294 -0.7531 -40.938 0 -48.4558 51.0199 31.9547 0 -40.1986 0 15.5194 14.2889 -0.205027 -3.55271e-015 -4.4182 9.239 -3.64953e-007 1.00767e-006 -2.89167e-006 9.4119 3.9773 -0.7758 0.588114 -10.2333 29.8431 0.7532 -40.9383 7.10543e-015 48.4554 51.0212 -31.9701 -3.55271e-015 -40.1986 0 -16.0692 14.2655 0.881864 -7.10543e-015 -4.4182 9.239 3.50742e-006 3.06225e-006 -4.54063e-007 
39.8404 5.7137 9.06246 180 -76.9544 180 7.10543e-015 8.7983 -4.7612 -0.0678406 3.27772 -0.150588 0 8.0291 0.4195 -0.127349 6.55555 -0.298014 -7.10543e-015 9.9351 -2.2114 -0.12735 6.55556 -0.298015 -7.10543e-015 22.3885 -0.4656 5.94507 23.6253 6.40624 -0.0001 12.643 3.4389 1.94846 -4.67311 -0.218185 2.2603 21.606 7.4023 -11.4705 7.12128 -4.65312 13.5163 -1.1332 -5.0146 41.469 -15.7721 31.3716 -0.0995 -28.05 -0.2431 -49.5184 -26.9089 -54.1551 0.0679 -23.3996 -0.1402 0.303395 13.9224 -3.58944 0.7932 -9.069 2.5189 -7.01434e-007 1.21038e-005 5.00896e-006 -0.8272 -3.3923 0.5977 3.33045e-006 -8.98343e-006 -6.88692e-006 -0.5649 -2.3158 0.4082 8.32337e-006 1.91066e-005 1.65939e-005 0.9159 -9.2044 0.2193 -7.01434e-007 1.21038e-005 5.00896e-006 0.0117 -4.1944 -0.0248 -0.012819 0.00231843 7.63906e-005 0.0071 -2.3249 -0.0142 2.39239e-006 1.31994e-005 1.15005e-005 0.6113 -8.7231 -2.0637 -7.01434e-007 1.21038e-005 5.00896e-006 -0.1927 -3.8059 -0.2383 -0.0160255 0.00299414 0.000853268 -0.1091 -2.1688 -0.1362 2.3151e-006 6.24973e-006 8.33306e-006 -0.6151 -8.0947 -3.5641 -7.01434e-007 1.21038e-005 5.00896e-006 -0.4882 -2.341 -0.6462 -0.0126043 0.00311695 0.00282964 -0.3575 -1.7167 -0.4742 4.70034e-006 5.36951e-006 9.19948e-006 -1.42 -1.8761 1.4223 -7.01434e-007 1.21038e-005 5.00896e-006 -1.1471 -3.4929 2.6334 3.33045e-006 -8.98343e-006 -6.88692e-006 -0.823 -2.3 1.6571 8.32337e-006 1.91066e-005 1.65939e-005 -2.2603 21.606 7.4023 11.0402 7.11643 -0.170563 -13.5187 -1.1334 -5.0155 -39.7385 -17.9321 -27.2455 0.0994 -28.0499 -0.2431 48.6688 -27.4025 54.4037 -0.0679 -23.3996 -0.1402 0.0932592 13.7399 4.06697 -0.793201 -9.0691 2.5189 3.18055e-015 -6.36111e-015 6.36111e-015 0.827201 -3.3923 0.5977 3.18055e-015 -3.18055e-015 4.77083e-015 0.565 -2.3158 0.4082 -3.18055e-015 -3.18055e-015 9.54166e-015 -0.916001 -9.2044 0.2193 3.18055e-015 -6.36111e-015 6.36111e-015 -0.0117 -4.1944 -0.0248 0.0129478 0.00228987 -7.83138e-005 -0.0071 -2.3249 -0.0142 -3.18055e-015 6.36111e-015 -9.54166e-015 -0.6113 -8.7231 -2.0637 3.18055e-015 -6.36111e-015 6.36111e-015 0.1927 -3.8059 -0.2383 0.0163381 0.00301736 -0.000858945 0.1091 -2.1688 -0.1362 -3.18055e-015 -9.54166e-015 -3.18055e-015 0.6151 -8.0947 -3.564 3.18055e-015 -6.36111e-015 6.36111e-015 0.4882 -2.341 -0.6462 0.0146037 0.00368448 -0.00324343 0.3574 -1.7166 -0.4742 -0 0 1.59028e-015 1.4199 -1.8761 1.4221 3.18055e-015 -6.36111e-015 6.36111e-015 1.1472 -3.4929 2.6336 3.18055e-015 -3.18055e-015 4.77083e-015 0.822901 -2.3 1.6571 -3.18055e-015 -3.18055e-015 9.54166e-015 -9.412 3.9771 -0.7758 -1.09007 -10.482 -30.6084 -0.7531 -40.938 0 -48.4576 51.0207 31.9555 0 -40.1986 -7.10543e-015 15.4555 14.3047 -0.132692 0 -4.4182 9.239 -1.06023e-006 2.5184e-006 -1.33163e-006 9.4119 3.9773 -0.7758 0.648364 -10.4667 29.9449 0.7532 -40.9383 3.55271e-015 48.4544 51.0207 -31.9682 7.10543e-015 -40.1986 -7.10543e-015 -15.9863 14.283 0.785779 -7.10543e-015 -4.4182 9.239 1.05967e-006 2.51981e-006 1.33226e-006 
39.8404 5.66285 9.0787 -180 -77.1379 -180 0 8.7983 -4.7612 -0.0674218 3.19093 -0.150763 0 8.0291 0.4195 -0.126714 6.38205 -0.298454 0 9.9351 -2.2114 -0.126714 6.38204 -0.298454 0 22.3885 -0.4656 5.92863 23.7702 6.20315 -0.0001 12.643 3.4389 1.83288 -4.50849 -0.438848 2.2603 21.606 7.4023 -11.7299 7.11657 -4.85894 13.5163 -1.1332 -5.0146 41.5968 -15.7603 31.4349 -0.0995 -28.05 -0.2431 -48.7585 -26.7704 -53.7717 0.0679 -23.3996 -0.1402 0.0373669 13.6633 -3.60226 0.7932 -9.069 2.5189 6.36111e-015 9.54166e-015 -1.59028e-015 -0.8272 -3.3923 0.5977 1.43125e-014 1.59028e-014 4.77083e-015 -0.5649 -2.3158 0.4082 1.27222e-014 9.54166e-015 6.36111e-015 0.9159 -9.2044 0.2193 6.36111e-015 9.54166e-015 -1.59028e-015 0.0117 -4.1944 -0.0248 -0.012811 0.00234097 8.48079e-005 0.0071 -2.3249 -0.0142 -4.6998e-007 -2.09688e-006 3.87721e-006 0.6113 -8.7231 -2.0637 6.36111e-015 9.54166e-015 -1.59028e-015 -0.1927 -3.8059 -0.2383 -0.0160155 0.00299965 0.000852064 -0.1091 -2.1688 -0.1362 1.59028e-015 3.18055e-015 6.36111e-015 -0.6151 -8.0947 -3.5641 6.36111e-015 9.54166e-015 -1.59028e-015 -0.4882 -2.341 -0.6462 -0.0125461 0.00311504 0.00281436 -0.3575 -1.7167 -0.4742 -6.36111e-015 -9.54166e-015 3.18055e-015 -1.42 -1.8761 1.4223 6.36111e-015 9.54166e-015 -1.59028e-015 -1.1471 -3.4929 2.6334 1.43125e-014 1.59028e-014 4.77083e-015 -0.823 -2.3 1.6571 1.27222e-014 9.54166e-015 6.36111e-015 -2.2603 21.606 7.4023 11.2838 7.12092 0.0161872 -13.5187 -1.1334 -5.0155 -39.8662 -17.9299 -27.3163 0.0994 -28.0499 -0.2431 47.9208 -27.2548 54.0299 -0.0679 -23.3996 -0.1402 0.340636 13.485 4.07417 -0.793201 -9.0691 2.5189 6.36111e-015 3.18055e-015 3.18055e-015 0.827201 -3.3923 0.5977 -8.89518e-007 -4.89765e-006 9.97644e-007 0.565 -2.3158 0.4082 -6.36111e-015 3.18055e-015 1.59028e-015 -0.916001 -9.2044 0.2193 6.36111e-015 3.18055e-015 3.18055e-015 -0.0117 -4.1944 -0.0248 0.0129642 0.0022999 -8.2737e-005 -0.0071 -2.3249 -0.0142 -3.18055e-015 0 1.27222e-014 -0.6113 -8.7231 -2.0637 6.36111e-015 3.18055e-015 3.18055e-015 0.1927 -3.8059 -0.2383 0.0163161 0.00302193 -0.000861168 0.1091 -2.1688 -0.1362 6.36111e-015 -9.54166e-015 -4.77083e-015 0.6151 -8.0947 -3.564 6.36111e-015 3.18055e-015 3.18055e-015 0.4882 -2.341 -0.6462 0.0145747 0.00367208 -0.00325697 0.3574 -1.7166 -0.4742 -3.18055e-015 3.18055e-015 -1.59028e-015 1.4199 -1.8761 1.4221 6.36111e-015 3.18055e-015 3.18055e-015 1.1472 -3.4929 2.6336 -8.89518e-007 -4.89765e-006 9.97644e-007 0.8229 -2.3 1.6571 -6.36111e-015 3.18055e-015 1.59028e-015 -9.412 3.9771 -0.7758 -1.13641 -10.7138 -30.6877 -0.7531 -40.938 3.55271e-015 -48.4561 51.0201 31.9537 7.10543e-015 -40.1986 7.10543e-015 15.3916 14.3205 -0.060342 -3.55272e-015 -4.4182 9.239 4.15183e-006 -1.05216e-005 -2.89458e-006 9.4119 3.9773 -0.7758 0.708961 -10.7065 30.0469 0.7532 -40.9383 -3.55271e-015 48.4618 51.024 -31.9728 -3.55272e-015 -40.1986 0 -15.9033 14.3003 0.689661 7.10543e-015 -4.4182 9.239 2.07786e-006 8.96457e-006 -8.03479e-006 
39.8404 5.61195 9.09488 -180 -77.3214 180 -7.10543e-015 8.7983 -4.7612 -0.0669997 3.10417 -0.150916 0 8.0291 0.4195 -0.126075 6.2085 -0.298849 -7.10543e-015 9.9351 -2.2114 -0.126075 6.20852 -0.298849 0 22.3885 -0.4656 5.91273 23.9151 5.99987 -0.0001 12.643 3.4389 1.71795 -4.34345 -0.659132 2.2603 21.606 7.4023 -11.9893 7.11284 -5.06476 13.5163 -1.1332 -5.0146 41.7229 -15.7481 31.4978 -0.0995 -28.05 -0.2431 -48.0002 -26.6282 -53.3919 0.0679 -23.3996 -0.1402 -0.228377 13.4042 -3.61631 0.7932 -9.069 2.5189 1.59028e-015 -1.59028e-014 -1.59028e-015 -0.8272 -3.3923 0.5977 -3.18055e-015 -3.18055e-015 -0 -0.5649 -2.3158 0.4082 -1.59028e-015 -9.54166e-015 4.77083e-015 0.9159 -9.2044 0.2193 1.59028e-015 -1.59028e-014 -1.59028e-015 0.0117 -4.1944 -0.0248 -0.0127827 0.00231277 7.85821e-005 0.0071 -2.3249 -0.0142 7.95139e-015 -6.36111e-015 3.18055e-015 0.6113 -8.7231 -2.0637 1.59028e-015 -1.59028e-014 -1.59028e-015 -0.1927 -3.8059 -0.2383 -0.0160493 0.00299327 0.000859256 -0.1091 -2.1688 -0.1362 4.77083e-015 0 3.18055e-015 -0.6151 -8.0947 -3.5641 1.59028e-015 -1.59028e-014 -1.59028e-015 -0.4882 -2.341 -0.6462 -0.0125672 0.00312431 0.00282688 -0.3575 -1.7167 -0.4742 0 6.36111e-015 -0 -1.42 -1.8761 1.4223 1.59028e-015 -1.59028e-014 -1.59028e-015 -1.1471 -3.4929 2.6334 -3.18055e-015 -3.18055e-015 -0 -0.823 -2.3 1.6571 -1.59028e-015 -9.54166e-015 4.77083e-015 -2.2603 21.606 7.4023 11.5273 7.12623 0.202901 -13.5187 -1.1334 -5.0155 -39.9942 -17.9277 -27.3872 0.0994 -28.0499 -0.2431 47.1755 -27.1028 53.6589 -0.0679 -23.3996 -0.1402 0.587757 13.23 4.08225 -0.7932 -9.0691 2.5189 -1.76556e-031 3.18055e-015 3.18055e-015 0.8272 -3.3923 0.5977 -3.18055e-015 6.36111e-015 -0 0.565 -2.3158 0.4082 6.36111e-015 6.36111e-015 -4.77083e-015 -0.916 -9.2044 0.2193 -1.76556e-031 3.18055e-015 3.18055e-015 -0.0117 -4.1944 -0.0248 0.0129454 0.00228706 -8.24536e-005 -0.0071 -2.3249 -0.0142 3.18055e-015 -3.18055e-015 7.95139e-015 -0.6113 -8.7231 -2.0637 -1.76556e-031 3.18055e-015 3.18055e-015 0.1927 -3.8059 -0.2383 0.0163457 0.00302684 -0.000873483 0.1091 -2.1688 -0.1362 3.18055e-015 -3.18055e-015 -9.54166e-015 0.6151 -8.0947 -3.564 -1.76556e-031 3.18055e-015 3.18055e-015 0.4882 -2.341 -0.6462 0.0146193 0.0036703 -0.00326565 0.3574 -1.7166 -0.4742 3.18055e-015 0 -3.18055e-015 1.4199 -1.8761 1.4221 -1.76556e-031 3.18055e-015 3.18055e-015 1.1472 -3.4929 2.6336 -3.18055e-015 6.36111e-015 -0 0.8229 -2.3 1.6571 6.36111e-015 6.36111e-015 -4.77083e-015 -9.412 3.9771 -0.7758 -1.18319 -10.9448 -30.7674 -0.7531 -40.938 1.77636e-015 -48.4537 51.019 31.9512 0 -40.1986 0 15.3276 14.3362 0.0120372 0 -4.4182 9.239 -2.28421e-006 -3.84104e-007 -4.34696e-007 9.4119 3.9773 -0.7758 0.770334 -10.9342 30.1495 0.7532 -40.9383 -3.55271e-015 48.4538 51.0204 -31.9656 0 -40.1986 0 -15.8202 14.3175 0.593496 -7.10543e-015 -4.4182 9.239 2.38542e-015 -6.36111e-015 -4.77083e-015 
